# xmcd
#
# Track frame offsets: 
#        150
#        9770
#        39177
#        58960
#        92192
#        104420
#        118110
#        152165
#        166112
#
# Disc length: 2577 seconds
#
# Revision: 0
# Processed by: cddbd v1.5.1PL0 Copyright (c) Steve Scherf et al.
# Submitted via: ExactAudioCopy v0.95a5
#
DISCID=670a0f09
DTITLE=Various Artist - ann arbor Blues and Jazz festival 1972
DYEAR=1973
DGENRE=Blues
TTITLE0=John Sinclair,Muddy Waters,Lucille Spann/Festival Dedication T
TTITLE0=o Otis Spann
TTITLE1=Lucille Spann with Mighty Joe Young/Dedicated To Otis
TTITLE2=Freddie King/Goin' Down
TTITLE3=Luther Allison/Please Send Me Someone To Love 
TTITLE4=Boogie Brothers with Sister Sarah Brown/My Last Meal
TTITLE5=Johnny Shines/Dust My Broom
TTITLE6=Otis Rush/Gambler's Blues
TTITLE7=Sippie Wallace with Bonnie Raitt/Women Be Wise
TTITLE8=Sun Ra and His Solar-Myth Arkestra/Life Is Splendid-From The Spa
TTITLE8=ce Is The Place Suite
EXTD=
EXTT0=
EXTT1=
EXTT2=
EXTT3=
EXTT4=
EXTT5=
EXTT6=
EXTT7=
EXTT8=
PLAYORDER=
